<?xml version="1.0" standalone="no"?>
<!DOCTYPE svg PUBLIC "-//W3C//DTD SVG 1.1//EN" "http://www.w3.org/Graphics/SVG/1.1/DTD/svg11.dtd" >
<svg xmlns="http://www.w3.org/2000/svg">
<metadata>
This is a custom SVG webfont generated by Font Squirrel.
Foundry     : FreeFoundry
Foundry URL : http://www.geocities.com/hartke01/
</metadata>
<defs>
<font id="webfont9qd0VaIC" horiz-adv-x="602" >
<font-face units-per-em="1000" ascent="760" descent="-240" />
<missing-glyph horiz-adv-x="500" />
<glyph unicode=" " />
<glyph unicode="!" d="M236 51q0 27 19 46q18 19 46 19q27 0 46 -19t19 -46t-19 -46t-46 -19q-28 0 -46 19q-19 18 -19 46zM238 729h126l-33 -401v-123h-60v123z" />
<glyph unicode="&#x22;" d="M433 729v-271h-78v271h78zM247 729v-271h-78v271h78z" />
<glyph unicode="#" d="M334 718l-51 -203h120l51 203h78l-51 -203h119v-75h-137l-41 -163h122v-75h-141l-51 -202h-78l51 202h-120l-51 -202h-78l51 202h-126v75h145l41 163h-130v75h148l51 203h78zM385 440h-120l-41 -163h120z" />
<glyph unicode="$" d="M320 33q55 4 84 32q29 26 29 73q0 43 -29 71q-28 30 -84 45v-221zM271 580q-51 -5 -78 -29q-28 -27 -28 -69q0 -39 26 -65q25 -25 80 -42v205zM69 35v135h53q1 -66 39 -101q36 -34 110 -36v237q-111 31 -158 72q-45 40 -45 108q0 78 54 126q53 47 149 53v131h49v-131 q51 -5 95 -16q43 -12 89 -32v-128h-53q-6 58 -40 89q-33 33 -91 38v-221q120 -33 168 -75t48 -113q0 -80 -56 -130q-56 -48 -160 -56v-132h-49v132q-50 2 -97 13q-54 14 -105 37z" />
<glyph unicode="%" d="M182 706q-32 0 -50 -33q-18 -32 -18 -90q0 -57 18 -91q19 -32 50 -32t49 32q18 33 18 91t-18 90q-18 33 -49 33zM422 268q-31 0 -50 -32q-18 -33 -18 -92q0 -57 18 -89q18 -33 50 -33t49 33q18 32 18 89q0 58 -18 92q-18 32 -49 32zM422 304q57 0 92 -44q34 -43 34 -116 t-35 -116q-34 -42 -91 -42q-58 0 -92 42q-35 43 -35 116q0 75 35 116q33 44 92 44zM498 742h74l-456 -742h-74zM181 742q58 0 92 -42q35 -43 35 -116q0 -74 -35 -117q-34 -43 -92 -43q-59 0 -92 44q-34 42 -34 116q0 73 35 115q33 43 91 43z" />
<glyph unicode="&#x26;" d="M406 113l-227 299q-34 -38 -51 -82q-17 -45 -17 -94q0 -82 45 -136q44 -55 112 -55q39 0 75 17q36 18 63 51zM589 0h-97l-54 71q-39 -42 -87 -64q-47 -21 -101 -21q-100 0 -159 64t-59 175q0 66 30 121q29 56 90 106q-21 33 -29 59q-9 30 -9 62q0 78 44 124q45 45 122 45 q24 0 61 -8q42 -11 80 -25v-126h-44q-6 52 -31 80q-25 27 -68 27q-40 0 -65 -28t-25 -71q0 -29 14 -60q13 -29 55 -84l201 -266q28 40 43 84q15 45 19 97h-30v52h104v-52h-27q-6 -62 -25 -119q-19 -54 -52 -102l67 -89h32v-52z" />
<glyph unicode="'" d="M340 729v-271h-78v271h78z" />
<glyph unicode="(" d="M421 -156q-119 54 -179 169q-61 115 -61 289t61 289q60 115 179 169v-48q-75 -53 -108 -146q-33 -94 -33 -264t33 -264q33 -93 108 -146v-48z" />
<glyph unicode=")" d="M181 -156v48q75 53 108 146q33 94 33 264t-33 264q-33 93 -108 146v48q119 -54 179 -169q61 -115 61 -289t-61 -289q-60 -115 -179 -169z" />
<glyph unicode="*" d="M535 604l-191 -89l191 -90l-37 -58l-170 106l6 -186h-66l6 186l-170 -106l-37 58l191 89l-191 90l37 58l170 -106l-6 186h66l-6 -186l170 106z" />
<glyph unicode="+" d="M342 572v-217h217v-83h-217v-217h-82v217h-217v83h217v217h82z" />
<glyph unicode="," d="M208 -97q45 31 68 79q22 47 22 111v18h96q-3 -82 -40 -143q-37 -62 -106 -104z" />
<glyph unicode="-" d="M174 314h254v-80h-254v80z" />
<glyph unicode="." d="M236 51q0 27 19 46q18 19 46 19q27 0 46 -19t19 -46t-19 -46t-46 -19q-28 0 -46 19q-19 18 -19 46z" />
<glyph unicode="/" d="M434 729h93l-384 -822h-93z" />
<glyph unicode="0" d="M236 366q0 27 18.5 46.5t45.5 19.5t46.5 -19.5t19.5 -46.5t-19 -46t-47 -19t-46 18.5t-18 46.5zM300.5 34q68.5 0 104.5 82q34 85 34 248t-34 248q-35 82 -104.5 82t-104.5 -82q-34 -81 -34 -248t34 -248q36 -82 104.5 -82zM300.5 -14q-110.5 0 -172.5 99 q-62 100 -62 279t62 279q62 99 172.5 99t171.5 -99q63 -100 63 -279t-63 -279q-61 -99 -171.5 -99z" />
<glyph unicode="1" d="M142 0v52h127v606l-147 -95v64l178 115h67v-690h127v-52h-352z" />
<glyph unicode="2" d="M128 555h-55v130q50 27 104 43q56 14 103 14q114 0 178 -55q66 -55 66 -150q0 -106 -149 -256l-17 -17l-182 -184h301v90h57v-170h-466v53l219 221q72 73 104 134q31 64 31 129q0 75 -39 115q-37 42 -104 42q-69 0 -107 -35q-38 -34 -44 -104z" />
<glyph unicode="3" d="M97 698q44 19 102 33q51 11 91 11q101 0 156 -46q56 -46 56 -128q0 -66 -39 -110q-39 -45 -109 -60q84 -14 129 -65q46 -53 46 -136q0 -102 -64 -157q-62 -54 -183 -54q-52 0 -104 12q-46 11 -101 37v142h52q4 -71 43 -107q41 -36 112 -36q68 0 110 43q40 43 40 119 q0 84 -41 130q-43 44 -122 44h-43v50h22q80 0 119 35q40 36 40 107q0 63 -32 98q-32 34 -94 34q-60 0 -95 -31q-34 -31 -40 -93h-51v128z" />
<glyph unicode="4" d="M349 247v388l-249 -388h249zM514 0h-232v52h67v143h-318v53l319 494h97v-495h109v-52h-109v-143h67v-52z" />
<glyph unicode="5" d="M485 729v-80h-334v-209q23 16 57 26q33 9 72 9q112 0 178 -65q64 -66 64 -179q0 -115 -65 -180t-185 -65q-48 0 -97 12q-50 12 -108 37v142h55q4 -68 44 -106q38 -37 106 -37q74 0 113 51q39 52 39 146q0 95 -39 145q-39 51 -113 51q-42 0 -73 -16q-32 -15 -58 -48h-42 v366h386z" />
<glyph unicode="6" d="M309 34q64 0 98 51q35 49 35 145t-35 145q-34 51 -98 51q-66 0 -99 -49q-34 -49 -34 -141q0 -98 34 -150q36 -52 99 -52zM161 401q30 37 70 55q39 18 88 18q101 0 160 -65q59 -66 59 -179q0 -111 -64 -178q-62 -66 -169 -66q-114 0 -177 92q-61 92 -61 263q0 192 73 296 q73 105 206 105q39 0 75 -7q43 -8 81 -22v-120h-51q-6 50 -35 75q-30 26 -79 26q-88 0 -131.5 -72t-44.5 -221z" />
<glyph unicode="7" d="M527 679l-270 -679h-70l259 649h-320v-90h-55v170h456v-50z" />
<glyph unicode="8" d="M442 199q0 79 -37 122t-102 43t-103 -43q-36 -43 -36 -122t36 -122q38 -43 103 -43t102 43t37 122zM423 553q0 67 -32 104t-88 37q-55 0 -88 -37q-32 -37 -32 -104t32 -104t88 -37q58 0 88 37q32 37 32 104zM373 388q79 -11 122 -61q44 -50 44 -128q0 -102 -61 -158 q-60 -55 -175 -55q-113 0 -175 55q-61 56 -61 158q0 79 43 128q45 50 122 61q-69 14 -106 56q-36 44 -36 109q0 88 56 139q58 50 157 50t156 -50q57 -51 57 -139q0 -66 -36 -109q-39 -43 -107 -56z" />
<glyph unicode="9" d="M440 327q-30 -37 -70 -55q-41 -18 -89 -18q-100 0 -159 65q-59 66 -59 179q0 110 63 178q64 66 170 66q115 0 176 -92q62 -92 62 -263q0 -192 -74 -296q-72 -105 -205 -105q-39 0 -76 7q-42 8 -81 22v121h51q6 -49 36 -75q29 -27 79 -27q88 0 131 72q43 70 45 221z M292 694q-65 0 -99 -51q-34 -49 -34 -145t34 -145q34 -51 99 -51t98 49q35 49 35 141q0 98 -35 150t-98 52z" />
<glyph unicode=":" d="M236 51q0 27 19 46q18 19 46 19t46 -19q19 -19 19 -46q0 -28 -19 -46q-18 -19 -46 -19t-46 19q-19 18 -19 46zM236 369q0 28 19 46q18 19 46 19t46 -18q19 -19 19 -47t-19 -46q-18 -19 -46 -19t-46 19q-19 19 -19 46z" />
<glyph unicode=";" d="M201 -97q44 31 68 79q21 47 21 111v18h96q-3 -82 -39 -143q-37 -62 -107 -104zM271 369q0 28 19 46q18 19 46 19t46 -19q19 -19 19 -46t-19 -46q-18 -19 -46 -19t-46 19q-19 19 -19 46z" />
<glyph unicode="&#x3c;" d="M559 469l-415 -156l415 -155v-89l-516 204v81l516 204v-89z" />
<glyph unicode="=" d="M43 256h516v-84h-516v84zM43 454h516v-83h-516v83z" />
<glyph unicode="&#x3e;" d="M43 469v89l516 -204v-81l-516 -204v89l415 155z" />
<glyph unicode="?" d="M199 51q0 27 19 46q18 19 46 19q27 0 46 -19t19 -46t-19 -46t-46 -19q-28 0 -46 19q-19 18 -19 46zM91 697q48 21 98 34q49 11 88 11q109 0 171 -52q63 -52 63 -141q0 -91 -54 -149q-55 -58 -163 -82v-124h-60v160q87 21 130 70q44 50 44 126q0 68 -36 105q-36 39 -97 39 q-56 0 -91 -32q-35 -31 -46 -92h-47v127z" />
<glyph unicode="@" d="M576 472v-430h-76v79q-29 -42 -58 -59q-33 -20 -72 -20q-76 0 -124 61q-47 62 -47 159q0 98 47 159q48 61 124 61q39 0 72 -20q29 -17 58 -59v69q0 37 -12.5 76.5t-31.5 57.5q-35 34 -92 34q-47 0 -94 -24q-94 -47 -142 -138q-49 -92 -49 -213q0 -81 22 -150t63 -119 q46 -57 112 -89q65 -30 140 -30q57 0 105 19l7 -47q-60 -23 -130 -23q-80 0 -152 33q-71 31 -127 92q-56 63 -85 142q-29 81 -29 172t30 170q27 79 84 141q29 32 65.5 59t64.5 36q62 19 117 19q86 0 140 -44q70 -57 70 -174zM500 237v51q0 61 -31 99t-81 38q-53 0 -82 -43 q-29 -42 -29 -120t29 -120q29 -43 83 -43q49 0 80 38q31 40 31 100z" />
<glyph unicode="A" d="M109 52h50v-52h-145v52h34l205 677h82l217 -677h42v-52h-205v52h51l-49 160h-236zM170 264h205l-106 347z" />
<glyph unicode="B" d="M180 52h96q88 0 128.5 38t40.5 121q0 82 -40.5 120t-128.5 38h-96v-317zM180 421h74q80 0 117 30.5t37 97.5t-37 97.5t-117 30.5h-74v-256zM18 0v52h63v625h-63v52h280q110 0 166 -45t56 -135q0 -65 -38.5 -103.5t-113.5 -47.5q93 -12 141 -59.5t48 -127.5 q0 -108 -68.5 -159.5t-213.5 -51.5h-257z" />
<glyph unicode="C" d="M539 193q-24 -103 -80 -155q-57 -52 -143 -52q-54 0 -99 24q-47 27 -81 72q-39 53 -60 124q-20 71 -20 158q0 168 73 274q74 104 193 104q44 0 94 -15q49 -16 108 -48v-168h-66q-11 94 -45 135q-35 44 -96 44q-73 0 -111 -83t-38 -243t38 -243t111 -83q51 0 84 39 q34 40 48 116h90z" />
<glyph unicode="D" d="M166 52h46q30 0 57 6.5t58 27t53 53.5t37 91t15 135t-15 135t-37 91t-53 53t-58 26.5t-57 6.5h-46v-625zM14 0v52h53v625h-53v52h203q96 0 171 -49t115.5 -131.5t40.5 -183.5q0 -100 -40 -183t-115.5 -132.5t-171.5 -49.5h-203z" />
<glyph unicode="E" d="M33 0v52h63v625h-63v52h497v-162h-60v102h-275v-244h179v91h60v-242h-60v91h-179v-305h283v102h60v-162h-505z" />
<glyph unicode="F" d="M51 0v52h63v625h-63v52h492v-162h-60v102h-270v-244h174v91h60v-242h-60v91h-174v-313h117v-52h-279z" />
<glyph unicode="G" d="M539 333v-272q-48 -38 -103 -56q-54 -19 -118 -19q-122 0 -194 103q-74 103 -74 275q0 174 74 275q72 103 197 103q45 0 95 -14q55 -17 105 -44v-173h-69q-10 91 -43.5 135t-93.5 44q-77 0 -115 -81q-38 -82 -38 -245q0 -161 39 -243q40 -83 116 -83q33 0 64 14 q30 13 59 41v188h-84v52h183z" />
<glyph unicode="H" d="M14 0v52h53v625h-53v52h205v-52h-53v-252h270v252h-53v52h205v-52h-53v-625h53v-52h-205v52h53v313h-270v-313h53v-52h-205z" />
<glyph unicode="I" d="M350 52h144v-52h-386v52h144v625h-144v52h386v-52h-144v-625z" />
<glyph unicode="J" d="M82 19v115h56q1 -49 22 -72q22 -24 64 -24q59 0 82 37q22 37 22 143v459h-152v52h364v-52h-112v-463q0 -120 -48 -174t-156 -54q-34 0 -70 8q-39 10 -72 25z" />
<glyph unicode="K" d="M14 0v52h53v625h-53v52h205v-52h-53v-276l296 276h-39v52h162v-52h-42l-295 -275l296 -350h53v-52h-139l-292 346v-294h53v-52h-205z" />
<glyph unicode="L" d="M42 0v52h63v625h-63v52h225v-52h-63v-617h292v122h60v-182h-514z" />
<glyph unicode="M" d="M4 0v52h43v625h-43v52h157l141 -414l155 414h140v-52h-43v-625h43v-52h-190v52h53v553l-149 -403h-69l-135 413v-563h53v-52h-156z" />
<glyph unicode="N" d="M10 0v52h58v625h-58v52h147l317 -555v503h-58v52h176v-52h-58v-691h-59l-347 594v-528h88v-52h-206z" />
<glyph unicode="O" d="M301 38q72 0 102.5 75t30.5 251q0 53 -2 91.5t-6.5 78t-14 66t-24 48t-36 32t-50.5 10.5t-50.5 -10.5t-36 -32t-24 -48t-14 -65.5t-6.5 -78t-2 -92q0 -176 30.5 -251t102.5 -75zM301 -14q-65 0 -112.5 27.5t-76 78.5t-42.5 118.5t-14 153.5t13.5 153.5t42.5 118.5 t76.5 78.5t112.5 27.5q244 0 244 -378q0 -85 -13.5 -153t-42 -119t-76.5 -78.5t-112 -27.5z" />
<glyph unicode="P" d="M195 371h99q72 0 111 39q38 41 38 114q0 74 -38 114q-39 39 -111 39h-99v-306zM33 0v52h63v625h-63v52h285q111 0 173 -55q64 -55 64 -150q0 -94 -64 -149q-62 -56 -173 -56h-123v-267h83v-52h-245z" />
<glyph unicode="Q" d="M301 38q72 0 102.5 75t30.5 251q0 53 -2 91.5t-6.5 78t-14 66t-24 48t-36 32t-50.5 10.5t-50.5 -10.5t-36 -32t-24 -48t-14 -65.5t-6.5 -78t-2 -92q0 -176 30.5 -251t102.5 -75zM368 -5q29 -35 64 -49q38 -16 91 -16h15v-90q-82 4 -141 40q-59 37 -96 106 q-65 0 -112.5 27.5t-76 78.5t-42.5 118.5t-14 153.5t13.5 153.5t42.5 118.5t76.5 78.5t112.5 27.5q244 0 244 -378q0 -150 -43 -246.5t-134 -122.5z" />
<glyph unicode="R" d="M351 362q32 -8 59 -32q24 -21 44 -62l106 -216h37v-52h-120l-114 232q-33 68 -60 87q-28 20 -75 20h-59v-287h63v-52h-215v52h53v625h-53v52h280q107 0 164 -51q58 -51 58 -144q0 -74 -42 -118t-126 -54zM169 391h94q74 0 109 35t35 108t-35 108t-109 35h-94v-286z" />
<glyph unicode="S" d="M51 35v166h56q3 -84 48 -123q44 -40 139 -40q86 0 133 35q45 33 45 100q0 53 -27 81q-28 28 -117 55l-96 29q-106 32 -147 79q-43 47 -43 130q0 93 66 144t185 51q56 0 111 -11q58 -10 129 -32v-155h-55q-9 78 -51 112q-45 34 -132 34q-77 0 -118 -32q-40 -32 -40 -91 q0 -52 30 -82q33 -31 129 -59l90 -27q99 -30 142 -76q42 -47 42 -124q0 -106 -68 -159q-68 -54 -202 -54q-60 0 -123 12q-56 11 -126 37z" />
<glyph unicode="T" d="M159 0v52h93v619h-169v-114h-60v172h557v-172h-60v114h-169v-619h93v-52h-285z" />
<glyph unicode="U" d="M72 677h-63v52h225v-52h-63v-377q0 -137 33 -193.5t116 -56.5q86 0 118 59.5t32 190.5v377h-63v52h186v-52h-63v-387q0 -161 -51 -232.5t-177 -71.5t-178 71.5t-52 232.5v387z" />
<glyph unicode="V" d="M155 677l167 -560l170 560h-52v52h154v-52h-41l-215 -677h-84l-211 677h-43v52h206v-52h-51z" />
<glyph unicode="W" d="M467 0h-80l-93 390l-100 -390h-80l-77 677h-32v52h159v-52h-44l56 -536l101 385h79l82 -364l73 515h-44v52h130v-52h-32z" />
<glyph unicode="X" d="M60 52h-54v-52h181v52h-64l156 245l143 -245h-57v-52h229v52h-48l-199 336l175 289h52v52h-179v-52h64l-142 -237l-135 237h56v52h-229v-52h48l192 -329z" />
<glyph unicode="Y" d="M189 0v52h63v262l-195 363h-38v52h211v-52h-55l152 -295l156 295h-52v52h152v-52h-39l-193 -354v-271h63v-52h-225z" />
<glyph unicode="Z" d="M45 0v35l379 634h-302v-109h-60v169h491v-35l-379 -634h337v102h60v-162h-526z" />
<glyph unicode="[" d="M188 760h226v-52h-134v-788h134v-52h-226v892z" />
<glyph unicode="\" d="M210 729l260 -822h-78l-260 822h78z" />
<glyph unicode="]" d="M414 760v-892h-226v52h134v788h-134v52h226z" />
<glyph unicode="^" d="M344 729l223 -272h-87l-179 193l-179 -193h-87l223 272h86z" />
<glyph unicode="_" d="M551 -197v-39h-500v39h500z" />
<glyph unicode="`" d="M286 799l126 -184h-56l-166 184h96z" />
<glyph unicode="a" d="M412 163v110h-116q-66 0 -98 -29q-34 -28 -34 -88q0 -54 34 -86q33 -32 90 -32q56 0 90 35q34 36 34 90zM502 324v-272h56v-52h-146v56q-30 -37 -68 -53q-41 -17 -92 -17q-88 0 -136 46q-52 45 -52 124q0 80 58 125q60 44 164 44h126v36q0 59 -36 91q-36 33 -100 33 q-55 0 -86 -25q-32 -25 -40 -72h-46v105q47 21 92 30q41 10 86 10q107 0 164 -53q56 -54 56 -156z" />
<glyph unicode="b" d="M94 52v656h-61v52h151v-322q28 52 62 72q39 23 94 23q90 0 146 -75q56 -76 56 -198q0 -124 -56 -198q-56 -76 -146 -76q-55 0 -94 23q-33 20 -62 72v-81h-151v52h61zM184 234q0 -93 34 -143q33 -49 96 -49q65 0 97 55q34 55 34 163t-34 162q-32 55 -97 55q-63 0 -96 -49 q-34 -50 -34 -143v-51z" />
<glyph unicode="c" d="M533 156q-19 -84 -73 -127q-53 -43 -140 -43q-113 0 -182 75t-69 199t69 199q69 74 182 74q46 0 98 -11q47 -12 98 -35v-133h-52q-10 68 -45 100q-36 31 -98 31q-73 0 -110 -57q-37 -55 -37 -168t37 -169q36 -57 110 -57q57 0 93 30q34 31 47 92h72z" />
<glyph unicode="d" d="M509 52h61v-52h-151v81q-29 -52 -62 -72q-39 -23 -94 -23q-90 0 -146 76q-56 74 -56 198q0 122 55 198q58 75 147 75q55 0 94 -23q34 -20 62 -72v270h-60v52h150v-708zM419 234v51q0 94 -34 143q-33 49 -96 49q-65 0 -98 -55t-33 -162t33 -163q33 -55 98 -55q63 0 96 49 q34 50 34 143z" />
<glyph unicode="e" d="M547 250h-387v-4q0 -106 39 -158q41 -54 117 -54q58 0 97 31q38 32 53 92h72q-21 -85 -79 -128t-152 -43q-114 0 -183 75t-69 199t68 198q67 75 178 75q118 0 181 -72q62 -72 65 -211zM441 302q-3 90 -38 137q-37 46 -102 46q-62 0 -98 -47q-35 -44 -43 -136h281z" />
<glyph unicode="f" d="M528 637h-47q-2 38 -21 56q-19 19 -59 19q-50 0 -71 -28q-20 -28 -20 -98v-67h195v-52h-195v-415h145v-52h-341v52h106v415h-123v52h123v65q0 88 45 131q45 45 133 45q32 0 65 -6q34 -6 65 -18v-99z" />
<glyph unicode="g" d="M509 467v-456q0 -112 -62 -172q-61 -61 -175 -61q-52 0 -98 9q-42 8 -90 28v109h47q9 -51 41 -74q33 -24 94 -24q80 0 116 45q37 44 37 140v70q-29 -52 -62 -72q-39 -23 -94 -23q-90 0 -146 76q-56 74 -56 198q0 122 56 198q57 75 146 75q55 0 94 -23q34 -20 62 -72v81 h151v-52h-61zM419 285q0 93 -33 143q-34 49 -97 49q-65 0 -98 -55t-33 -162t33 -163q33 -55 98 -55q60 0 95 49q35 50 35 143v51z" />
<glyph unicode="h" d="M45 0v52h56v656h-61v52h151v-333q26 53 65 79q39 27 92 27q87 0 127 -49t40 -154v-278h55v-52h-198v52h53v250q0 95 -23 130q-24 35 -83 35q-64 0 -95 -46q-33 -45 -33 -132v-237h53v-52h-199z" />
<glyph unicode="i" d="M242 680q0 22 16 39t40 17q22 0 38 -17q16 -16 16 -39t-16 -39t-38 -16q-25 0 -40 16q-16 17 -16 39zM356 52h166v-52h-402v52h146v415h-106v52h196v-467z" />
<glyph unicode="j" d="M293 680q0 21 16 39q17 17 40 17q22 0 39 -17q16 -18 16 -39q0 -23 -16 -39t-39 -16q-24 0 -40 16q-16 18 -16 39zM315 467h-145v52h235v-570q0 -79 -48 -126q-47 -45 -131 -45q-33 0 -67 8q-32 8 -62 24v107h46q3 -45 24 -69q21 -22 61 -22q45 0 66 30t21 93v518z" />
<glyph unicode="k" d="M258 0h-202v52h56v656h-61v52h151v-495l219 202h-50v52h185v-52h-64l-154 -143l197 -272h50v-52h-206v52h49l-155 213l-71 -66v-147h56v-52z" />
<glyph unicode="l" d="M346 52h156v-52h-402v52h156v656h-126v52h216v-708z" />
<glyph unicode="m" d="M263 0h118v52h-28v237q0 82 19.5 130t51.5 48q30 0 40 -29t10 -118v-320h121v52h-31v278q0 113 -24.5 157.5t-86.5 45.5q-42 1 -74.5 -37.5t-33.5 -77.5q-2 51 -26.5 83t-68.5 32q-88 0 -108 -106v92h-126v-51h36v-416h-31v-52h149v52h-28v237q0 82 19.5 130t51.5 48 q30 0 40 -28t10 -116v-323z" />
<glyph unicode="n" d="M45 0v52h56v415h-61v52h151v-92q26 53 65 79q39 27 92 27q87 0 127 -49t40 -154v-278h55v-52h-198v52h53v250q0 96 -24 130q-23 36 -82 36q-64 0 -95 -46q-33 -45 -33 -133v-237h53v-52h-199z" />
<glyph unicode="o" d="M301 34q68 0 104 57q35 59 35 169q0 109 -35 168q-36 57 -104 57q-69 0 -104 -57q-35 -56 -35 -168q0 -113 35 -169q36 -57 104 -57zM301 -14q-107 0 -172.5 75t-65.5 199t64 198q66 75 174 75q107 0 173 -75q65 -73 65 -198q0 -124 -65.5 -199t-172.5 -75z" />
<glyph unicode="p" d="M183 285v-51q0 -93 34 -143q33 -49 96 -49q65 0 97 55q34 55 34 163t-34 162q-32 55 -97 55q-63 0 -96 -49q-34 -50 -34 -143zM93 467h-61v52h151v-81q28 52 62 72q39 23 94 23q90 0 146 -75q56 -76 56 -198q0 -124 -56 -198q-56 -76 -146 -76q-55 0 -94 23 q-33 20 -62 72v-237h60v-52h-211v52h61v623z" />
<glyph unicode="q" d="M516 467v-623h61v-52h-211v52h60v237q-29 -52 -62 -72q-39 -23 -94 -23q-90 0 -146 76q-56 74 -56 198q0 122 55 198q58 75 147 75q55 0 94 -23q34 -20 62 -72v81h151v-52h-61zM426 285q0 93 -34 143q-33 49 -96 49q-65 0 -98 -55t-33 -162t33 -163q33 -55 98 -55 q63 0 96 49q34 50 34 143v51z" />
<glyph unicode="r" d="M522 520v-130h-52q-1 37 -21 58q-21 19 -56 19q-65 0 -102 -46q-35 -47 -35 -132v-237h104v-52h-275v52h81v416h-86v51h176v-92q26 54 68 80q41 26 101 26q22 0 46 -3q14 -2 51 -10z" />
<glyph unicode="s" d="M98 29v121h52q2 -58 36 -87q35 -29 102 -29q60 0 92 23q32 22 32 66q0 34 -23 55q-25 22 -98 45l-65 22q-67 21 -97 54q-30 31 -30 82q0 71 52 112q52 40 145 40q45 0 86 -11q48 -11 94 -31v-113h-52q-2 50 -35 79q-34 28 -90 28q-55 0 -86 -20q-29 -21 -29 -60 q0 -34 22 -53t88 -40l71 -22q75 -23 106 -57q33 -35 33 -89q0 -74 -56 -116q-57 -42 -156 -42q-54 0 -98 11q-52 11 -96 32z" />
<glyph unicode="t" d="M208 467h-140v52h140v161h90v-161h204v-52h-204v-330q0 -67 12 -84q12 -19 48 -19q34 0 50 21q18 22 18 67h68q-5 -73 -40 -103q-34 -33 -104 -33q-78 0 -110 34q-32 35 -32 117v330z" />
<glyph unicode="u" d="M363 519h143v-467h60v-52h-150v92q-23 -51 -64 -79q-40 -27 -92 -27q-87 0 -127 49q-41 50 -41 154v278h-56v52h146v-302q0 -95 23 -130t83 -35q64 0 95 46q33 45 33 133v236h-53v52z" />
<glyph unicode="v" d="M268 0l-190 467h-60v52h240v-52h-84l146 -357l146 357h-78v52h196v-52h-58l-192 -467h-66z" />
<glyph unicode="w" d="M351 389l73 -287l89 365h-45v52h128v-52h-28l-113 -467h-75l-81 258l-78 -258h-72l-105 467h-28v52h150v-52h-44l78 -365l88 287h63z" />
<glyph unicode="x" d="M310 317l109 150h-70v52h200v-52h-69l-139 -192l162 -223h68v-52h-240v52h66l-113 155l-113 -155h67v-52h-197v52h69l143 197l-158 218h-64v52h232v-52h-62z" />
<glyph unicode="y" d="M238 -95l34 86l-194 476h-50v52h220v-52h-74l146 -357l146 357h-68v52h176v-52h-48l-238 -584q-24 -60 -54 -83q-30 -22 -84 -22q-26 0 -48 4q-20 3 -48 11v99h46q2 -32 16 -48q14 -14 44 -14q26 0 42 15q18 16 36 60z" />
<glyph unicode="z" d="M76 0v42l325 425h-257v-90h-52v142h425v-42l-325 -425h282v94h52v-146h-450z" />
<glyph unicode="{" d="M494 -112v-51h-30q-121 0 -163 36q-41 36 -41 144v126q0 73 -27 102q-25 28 -95 28h-30v51h30q69 0 95 29q27 27 27 101v126q0 108 41 144q42 36 163 36h30v-51h-33q-69 0 -90 -21q-21 -22 -21 -91v-140q0 -77 -24 -110q-26 -33 -88 -48q63 -16 88 -49q24 -33 24 -110 v-140q0 -69 21 -90q21 -22 90 -22h33z" />
<glyph unicode="|" d="M340 764v-1000h-78v1000h78z" />
<glyph unicode="}" d="M108 -112h34q68 0 89 21q21 23 21 91v140q0 77 24 110q25 33 88 49q-64 15 -88 48t-24 110v140q0 70 -21 91t-89 21h-34v51h31q121 0 162 -36t41 -144v-126q0 -73 26 -101q27 -29 96 -29h30v-51h-30q-69 0 -96 -28q-26 -29 -26 -102v-126q0 -108 -41 -144t-162 -36h-31 v51z" />
<glyph unicode="~" d="M551 394v-72q-38 -42 -74 -64q-36 -20 -71 -20q-36 0 -106 32l-4 2q-7 3 -13 6q-56 28 -94 28q-36 0 -70 -18t-68 -55v74q41 44 73 62q34 20 72 20q36 0 106 -32l4 -2q3 -1 12 -6q55 -28 94 -28q36 0 71 18q34 18 68 55z" />
<glyph unicode="&#xa0;" />
<glyph unicode="&#xa1;" d="M236 678q0 28 19 46q18 19 46 19q27 0 46 -19t19 -46t-19 -46t-46 -19q-28 0 -46 19q-19 19 -19 46zM238 0l33 401v123h60v-123l33 -401h-126z" />
<glyph unicode="&#xa2;" d="M301 484q-59 -7 -88 -64q-30 -56 -30 -160q0 -105 30 -161q29 -57 88 -64v449zM519 156q-16 -76 -59 -118q-44 -42 -113 -51v-132h-46v132q-100 9 -160 82q-58 74 -58 191t58 191q59 73 160 81v130h46v-130q43 -3 81 -15q39 -11 75 -30v-133h-49q-8 61 -35 92 q-27 32 -72 38v-449q41 6 68 37q27 32 36 84h68z" />
<glyph unicode="&#xa3;" d="M517 598h-48q-4 47 -31 71q-25 25 -69 25q-58 0 -87 -38q-27 -38 -27 -118v-144h189v-52h-189v-283h219v111h54v-170h-454v52h89v290h-89v52h89v144q0 101 52 152q52 52 155 52q39 0 76 -6q38 -6 71 -18v-120z" />
<glyph unicode="&#xa4;" d="M414 481l96 101l43 -46l-95 -102q18 -27 29 -59q9 -29 9 -62q0 -34 -9 -63q-11 -32 -30 -56l95 -101l-45 -46l-95 100q-26 -22 -52 -32q-27 -10 -59 -10t-59 10q-28 11 -56 30l-94 -100l-43 46l94 101q-19 30 -29 60q-9 29 -9 61q0 36 9 63q10 29 30 57l-94 101l43 46 l95 -101q26 22 53 32q26 10 60 10q31 0 58 -10q26 -8 55 -30zM424 314q0 55 -36 92q-36 38 -87.5 38t-87.5 -38t-36 -92t36 -94q36 -38 87.5 -38t87.5 38t36 94z" />
<glyph unicode="&#xa5;" d="M170 0v52h87v179h-185v51h185v32l-37 69h-148v51h120l-131 243h-64v52h254v-52h-80l157 -295l156 295h-77v52h198v-52h-65l-130 -243h125v-51h-153l-33 -60v-41h186v-51h-186v-179h88v-52h-267z" />
<glyph unicode="&#xa6;" d="M340 199v-370h-78v370h78zM340 699v-370h-78v370h78z" />
<glyph unicode="&#xa7;" d="M236 457q-34 -23 -47 -43q-13 -19 -13 -46q0 -64 177 -163l16 -9q28 17 43 42q14 23 14 51q0 38 -34 69q-34 33 -156 99zM456 715v-99h-45q-1 35 -27 56q-25 20 -68 20q-48 0 -77 -24q-28 -25 -28 -64q0 -48 120 -114q13 -8 19 -11q94 -53 126 -90q30 -36 30 -85 q0 -47 -26 -77q-27 -31 -81 -52q38 -22 56 -54q18 -30 18 -75q0 -64 -50 -103q-50 -38 -134 -38q-44 0 -83 6q-40 8 -77 21v102h45q2 -40 27 -59q28 -20 79 -20q52 0 80 24q30 24 30 65q0 56 -111 117q-11 6 -16 9q-107 61 -136 96q-31 37 -31 85q0 46 29 78q29 33 82 48 q-41 24 -60 55q-19 32 -19 69q0 63 49 102t130 39q40 0 75 -7q33 -5 74 -20z" />
<glyph unicode="&#xa8;" d="M206 766q23 0 40 -17t17 -40q0 -25 -16 -41t-41 -16t-41 16q-16 18 -16 41t17 40t40 17zM396 766q23 0 40 -17t17 -40t-16 -41q-16 -16 -41 -16t-41 16t-16 41q0 23 17 40t40 17z" />
<glyph unicode="&#xa9;" d="M404 280q-8 -64 -34 -99q-27 -34 -68 -34q-54 0 -88 59q-32 58 -32 156q0 99 33 157q32 59 87 59q23 0 46 -9q24 -10 48 -28v-104h-25q-4 54 -21 78q-17 25 -48 25q-35 0 -53 -45q-17 -44 -17 -133q0 -87 17 -133q19 -44 53 -44q28 0 45 23q16 25 22 72h35zM301 725 q45 0 83 -27q39 -27 71 -80q32 -54 47 -117q16 -65 16 -139q0 -75 -16 -138q-15 -63 -47 -117q-32 -53 -71 -80q-38 -27 -83 -27t-83 27q-39 27 -71 80q-32 54 -47 117q-16 63 -16 138q0 74 16 139q15 63 47 117q32 53 71 80q38 27 83 27zM301 675q-37 0 -71 -23t-61 -69 q-27 -45 -41 -101q-14 -58 -14 -120t14 -119q14 -54 41 -101q27 -46 61 -69t71 -23q38 0 72 23t61 69t40 101q14 55 14 119q0 63 -14 120q-13 55 -40 101t-61 69t-72 23z" />
<glyph unicode="&#xaa;" d="M456 595v-185h38v-41h-110v39q-27 -26 -54 -36q-30 -12 -74 -12q-69 0 -108 32q-40 31 -40 86q0 56 46 87q45 31 130 31h100v22q0 41 -28 64q-30 23 -80 23q-43 0 -68 -17q-26 -17 -32 -51h-36v77q38 14 72 21q33 7 68 7q86 0 130 -37q46 -37 46 -110zM384 487v72h-92 q-52 0 -78 -19q-26 -20 -26 -58q0 -41 24 -60q24 -21 72 -21q46 0 72 24q28 23 28 62zM128 312h340v-51h-340v51z" />
<glyph unicode="&#xab;" d="M518 517v-56l-145 -168l145 -168v-56l-229 204v40zM306 517v-56l-145 -168l145 -168v-56l-229 204v40z" />
<glyph unicode="&#xac;" d="M79 421h444v-281h-55v202h-389v79z" />
<glyph unicode="&#xad;" d="M176 306h250v-76h-250v76z" />
<glyph unicode="&#xae;" d="M263 386h37q24 0 36 19q12 18 12 55q0 35 -12 55q-12 18 -36 18h-37v-147zM335 368q11 -5 21 -19q9 -12 15 -32l34 -112h22v-33h-56l-38 124q-10 33 -19 46q-10 11 -24 11h-27v-148h25v-33h-93v33h24v328h-24v33h122q37 0 56 -27q19 -29 19 -81q0 -40 -14 -63 q-14 -22 -43 -27zM301 675q-37 0 -71 -23t-61 -69q-27 -45 -41 -101q-14 -58 -14 -120t14 -119q14 -54 41 -101q27 -46 61 -69t71 -23q38 0 72 23t61 69t40 101q14 55 14 119q0 63 -14 120q-13 55 -40 101t-61 69t-72 23zM301 725q45 0 83 -27q39 -27 71 -80q32 -54 47 -117 q16 -65 16 -139q0 -75 -16 -138q-15 -63 -47 -117q-32 -53 -71 -80q-38 -27 -83 -27t-83 27q-39 27 -71 80q-32 54 -47 117q-16 63 -16 138q0 74 16 139q15 63 47 117q32 53 71 80q38 27 83 27z" />
<glyph unicode="&#xaf;" d="M155 745h292v-72h-292v72z" />
<glyph unicode="&#xb0;" d="M301 675q-38 0 -62 -26q-26 -26 -26 -63t25 -62t63 -25t62 25q26 26 26 62q0 35 -26 63q-26 26 -62 26zM301 742q31 0 60 -12q30 -13 50 -34q22 -22 34 -50q11 -30 11 -60q0 -64 -45 -109t-111 -45t-110 44t-44 110t45 111t110 45z" />
<glyph unicode="&#xb1;" d="M43 83h516v-83h-516v83zM342 572v-161h217v-83h-217v-162h-82v162h-217v83h217v161h82z" />
<glyph unicode="&#xb2;" d="M193 633h-34v77q31 15 66 24q37 8 68 8q66 0 109 -32q42 -33 42 -83q0 -59 -95 -145l-9 -8l-116 -105h188v53h36v-96h-294v37l139 124q43 38 60 67q18 30 18 62q0 41 -23 66q-24 24 -65 24q-39 0 -61 -18q-23 -20 -29 -55z" />
<glyph unicode="&#xb3;" d="M162 717q43 14 68 19q34 6 62 6q66 0 104 -26q36 -27 36 -75q0 -35 -26 -59q-25 -26 -72 -33q57 -7 88 -37q30 -29 30 -78q0 -57 -44 -85q-42 -30 -122 -30q-36 0 -68 7q-32 5 -68 20v83h34q4 -38 26 -55q24 -19 69.5 -19t70.5 21q26 22 26 62q0 45 -26 69q-26 23 -74 23 h-26v36h14q48 0 72 18t24 54q0 33 -20 50q-20 18 -58 18q-40 0 -60 -16q-23 -16 -26 -47h-34v74z" />
<glyph unicode="&#xb4;" d="M316 800h96l-166 -184h-56z" />
<glyph unicode="&#xb6;" d="M286 729h248v-52h-55v-773h-49v773h-106v-773h-49v413q-98 7 -152 62q-55 54 -55 144q0 94 61 149q59 57 157 57z" />
<glyph unicode="&#xb7;" d="M255 301q-19 18 -19 46t19 46q18 19 46 19q27 0 46 -19t19 -46t-19 -46t-46 -19q-28 0 -46 19z" />
<glyph unicode="&#xb8;" d="M340 0q34 -34 47 -59q15 -27 15 -51q0 -40 -31 -61q-29 -22 -85 -22q-21 0 -42 3q-22 3 -44 9v64q15 -7 39 -13q26 -4 37 -4q26 0 44 13q16 14 16 35q0 13 -11 35q-7 16 -32 51h47z" />
<glyph unicode="&#xb9;" d="M190 326v41h84v310l-98 -52v46l116 63h50v-367h84v-41h-236z" />
<glyph unicode="&#xba;" d="M301 397q51 0 78 39q26 40 26 115q0 76 -27 115q-26 39 -77 39t-78 -39q-26 -41 -26 -115q0 -75 26 -115q27 -39 78 -39zM301 360q-86 0 -137 52q-52 52 -52 139t52 139q51 52 137 52t137 -52q52 -52 52 -139t-52 -139q-51 -52 -137 -52zM133 312h336v-51h-336v51z" />
<glyph unicode="&#xbb;" d="M293 517l229 -204v-40l-229 -204v56l145 168l-145 168v56zM81 517l229 -204v-40l-229 -204v56l145 168l-145 168v56z" />
<glyph unicode="&#xbf;" d="M403 678q0 -27 -19 -46q-18 -19 -46 -19q-27 0 -46 19t-19 46t19 46t46 19q28 0 46 -19q19 -18 19 -46zM511 32q-51 -22 -98 -34q-49 -11 -88 -11q-109 0 -171 52q-63 53 -63 141q0 90 54 149q55 58 163 82v124h60v-160q-87 -21 -130 -70q-44 -50 -44 -126q0 -67 36 -105 q36 -39 97 -39q54 0 91 32q35 31 46 92h47v-127z" />
<glyph unicode="&#xc0;" d="M109 52h50v-52h-145v52h34l205 677h82l217 -677h42v-52h-205v52h51l-49 160h-236zM170 264h205l-106 347zM406 927l89 -129h-57l-128 129h96z" />
<glyph unicode="&#xc1;" d="M109 52h50v-52h-145v52h34l205 677h82l217 -677h42v-52h-205v52h51l-49 160h-236zM170 264h205l-106 347zM399 927h96l-128 -129h-57z" />
<glyph unicode="&#xc2;" d="M109 52h50v-52h-145v52h34l205 677h82l217 -677h42v-52h-205v52h51l-49 160h-236zM170 264h205l-106 347zM359 927h86l113 -129h-57l-99 79l-99 -79h-57z" />
<glyph unicode="&#xc3;" d="M109 52h50v-52h-145v52h34l205 677h82l217 -677h42v-52h-205v52h51l-49 160h-236zM170 264h205l-106 347zM396 837l-24 14q-6 4 -20 10q-9 3 -18 3q-18 0 -32 -14q-13 -14 -14 -36h-47q2 51 26 78q24 29 66 29q16 0 33 -5t42 -19l24 -13q4 -2 22 -10q11 -3 19 -3 q21 0 31 13q12 14 12 37h47q-2 -53 -26 -79q-25 -28 -71 -28q-33 0 -68 22z" />
<glyph unicode="&#xc4;" d="M109 52h50v-52h-145v52h34l205 677h82l217 -677h42v-52h-205v52h51l-49 160h-236zM170 264h205l-106 347zM307 920q23 0 40 -17q17 -19 17 -40q0 -23 -16 -41q-16 -16 -41 -16t-40 16q-17 17 -17 41q0 21 17 40q17 17 40 17zM497 920q23 0 40 -17q17 -19 17 -40 q0 -24 -17 -41q-15 -16 -40 -16t-41 16q-16 18 -16 41q0 21 17 40q17 17 40 17z" />
<glyph unicode="&#xc5;" d="M341 742q18 21 18 52t-18 52q-17 22 -43 22t-44 -21t-18 -53q0 -31 18 -52q18 -22 44 -22t43 22zM166 264h221l-110 347zM-5 0v52h53l198 624q-28 17 -45 48q-15 29 -15 70q0 56 32.5 95t79 39t79 -39t32.5 -95q0 -39 -16 -70q-16 -32 -45 -48l200 -624h59v-52h-220v52 h68l-51 160h-255l-51 -160h67v-52h-170z" />
<glyph unicode="&#xc6;" d="M146 264h144v413h-30zM234 0v52h56v160h-158l-45 -160h48v-52h-124v52h39l172 625h-63v52h427v-162h-36v102h-202v-244h144v91h36v-242h-36v91h-144v-305h207v102h36v-162h-357z" />
<glyph unicode="&#xc7;" d="M829 0q34 -34 47 -59q15 -27 15 -51q0 -40 -31 -61q-29 -22 -85 -22q-21 0 -42 3q-22 3 -44 9v64q15 -7 39 -13q26 -4 37 -4q26 0 44 13q16 14 16 35q0 13 -11 35q-7 16 -32 51h47zM539 193q-24 -103 -80 -155q-57 -52 -143 -52q-54 0 -99 24q-47 27 -81 72 q-39 53 -60 124q-20 71 -20 158q0 168 73 274q74 104 193 104q44 0 94 -15q49 -16 108 -48v-168h-66q-11 94 -45 135q-35 44 -96 44q-73 0 -111 -83t-38 -243t38 -243t111 -83q51 0 84 39q34 40 48 116h90z" />
<glyph unicode="&#xc8;" d="M33 0v52h63v625h-63v52h497v-162h-60v102h-275v-244h179v91h60v-242h-60v91h-179v-305h283v102h60v-162h-505zM368 927l90 -129h-58l-128 129h96z" />
<glyph unicode="&#xc9;" d="M33 0v52h63v625h-63v52h497v-162h-60v102h-275v-244h179v91h60v-242h-60v91h-179v-305h283v102h60v-162h-505zM362 927h96l-128 -129h-58z" />
<glyph unicode="&#xca;" d="M33 0v52h63v625h-63v52h497v-162h-60v102h-275v-244h179v91h60v-242h-60v91h-179v-305h283v102h60v-162h-505zM322 927h86l113 -129h-57l-99 79l-99 -79h-57z" />
<glyph unicode="&#xcb;" d="M33 0v52h63v625h-63v52h497v-162h-60v102h-275v-244h179v91h60v-242h-60v91h-179v-305h283v102h60v-162h-505zM270 920q23 0 40 -17q17 -19 17 -40q0 -23 -16 -41q-16 -16 -41 -16t-40 16q-17 17 -17 41q0 21 17 40q17 17 40 17zM460 920q23 0 40 -17q17 -19 17 -40 q0 -24 -17 -41q-15 -16 -40 -16t-41 16q-16 18 -16 41q0 21 17 40q17 17 40 17z" />
<glyph unicode="&#xcc;" d="M350 52h144v-52h-386v52h144v625h-144v52h386v-52h-144v-625zM356 927l89 -129h-57l-128 129h96z" />
<glyph unicode="&#xcd;" d="M350 52h144v-52h-386v52h144v625h-144v52h386v-52h-144v-625zM349 927h96l-128 -129h-57z" />
<glyph unicode="&#xce;" d="M350 52h143v-52h-385v52h143v625h-143v52h385v-52h-143v-625zM309 927h86l113 -129h-57l-99 79l-99 -79h-57z" />
<glyph unicode="&#xcf;" d="M350 52h143v-52h-385v52h143v625h-143v52h385v-52h-143v-625zM257 920q23 0 40 -17q17 -19 17 -40q0 -23 -16 -41q-16 -16 -41 -16t-40 16q-17 17 -17 41q0 21 17 40q17 17 40 17zM447 920q23 0 40 -17q17 -19 17 -40q0 -24 -17 -41q-15 -16 -40 -16t-41 16 q-16 18 -16 41q0 21 17 40q17 17 40 17z" />
<glyph unicode="&#xd0;" d="M189 52h68q105 0 162 81q56 80 56 232t-56 232t-162 80h-68v-265h122v-61h-122v-299zM48 0v52h69v299h-73v61h73v265h-69v52h215q139 0 217 -96t78 -268t-78 -268q-78 -97 -217 -97h-215z" />
<glyph unicode="&#xd1;" d="M10 0v52h58v625h-58v52h147l317 -555v503h-58v52h176v-52h-58v-691h-59l-347 594v-528h88v-52h-206zM410 837l-24 14q-6 4 -20 10q-9 3 -18 3q-18 0 -32 -14q-13 -14 -14 -36h-47q2 51 26 78q24 29 66 29q16 0 33 -5t42 -19l24 -13q4 -2 22 -10q10 -3 19 -3q21 0 31 13 q12 14 12 37h47q-2 -53 -26 -79q-25 -28 -71 -28q-33 0 -68 22z" />
<glyph unicode="&#xd2;" d="M301 38q72 0 102.5 75t30.5 251q0 53 -2 91.5t-6.5 78t-14 66t-24 48t-36 32t-50.5 10.5t-50.5 -10.5t-36 -32t-24 -48t-14 -65.5t-6.5 -78t-2 -92q0 -176 30.5 -251t102.5 -75zM301 -14q-65 0 -112.5 27.5t-76 78.5t-42.5 118.5t-14 153.5t13.5 153.5t42.5 118.5 t76.5 78.5t112.5 27.5q244 0 244 -378q0 -85 -13.5 -153t-42 -119t-76.5 -78.5t-112 -27.5zM466 927l88 -129h-56l-128 129h96z" />
<glyph unicode="&#xd3;" d="M301 38q72 0 102.5 75t30.5 251q0 53 -2 91.5t-6.5 78t-14 66t-24 48t-36 32t-50.5 10.5t-50.5 -10.5t-36 -32t-24 -48t-14 -65.5t-6.5 -78t-2 -92q0 -176 30.5 -251t102.5 -75zM301 -14q-65 0 -112.5 27.5t-76 78.5t-42.5 118.5t-14 153.5t13.5 153.5t42.5 118.5 t76.5 78.5t112.5 27.5q244 0 244 -378q0 -85 -13.5 -153t-42 -119t-76.5 -78.5t-112 -27.5zM458 927h96l-128 -129h-56z" />
<glyph unicode="&#xd4;" d="M301 38q72 0 102.5 75t30.5 251q0 53 -2 91.5t-6.5 78t-14 66t-24 48t-36 32t-50.5 10.5t-50.5 -10.5t-36 -32t-24 -48t-14 -65.5t-6.5 -78t-2 -92q0 -176 30.5 -251t102.5 -75zM301 -14q-65 0 -112.5 27.5t-76 78.5t-42.5 118.5t-14 153.5t13.5 153.5t42.5 118.5 t76.5 78.5t112.5 27.5q244 0 244 -378q0 -85 -13.5 -153t-42 -119t-76.5 -78.5t-112 -27.5zM419 927h86l113 -129h-57l-99 79l-99 -79h-57z" />
<glyph unicode="&#xd5;" d="M301 38q72 0 102.5 75t30.5 251q0 53 -2 91.5t-6.5 78t-14 66t-24 48t-36 32t-50.5 10.5t-50.5 -10.5t-36 -32t-24 -48t-14 -65.5t-6.5 -78t-2 -92q0 -176 30.5 -251t102.5 -75zM301 -14q-65 0 -112.5 27.5t-76 78.5t-42.5 118.5t-14 153.5t13.5 153.5t42.5 118.5 t76.5 78.5t112.5 27.5q244 0 244 -378q0 -85 -13.5 -153t-42 -119t-76.5 -78.5t-112 -27.5zM456 837l-24 14q-6 4 -20 10q-9 3 -18 3q-18 0 -32 -14q-13 -14 -14 -36h-47q2 51 26 78q24 29 66 29q16 0 33 -5t42 -19l24 -13q4 -2 22 -10q10 -3 19 -3q21 0 31 13q12 14 12 37 h47q-2 -53 -26 -79q-25 -28 -71 -28q-33 0 -68 22z" />
<glyph unicode="&#xd6;" d="M301 38q72 0 102.5 75t30.5 251q0 53 -2 91.5t-6.5 78t-14 66t-24 48t-36 32t-50.5 10.5t-50.5 -10.5t-36 -32t-24 -48t-14 -65.5t-6.5 -78t-2 -92q0 -176 30.5 -251t102.5 -75zM301 -14q-65 0 -112.5 27.5t-76 78.5t-42.5 118.5t-14 153.5t13.5 153.5t42.5 118.5 t76.5 78.5t112.5 27.5q244 0 244 -378q0 -85 -13.5 -153t-42 -119t-76.5 -78.5t-112 -27.5zM367 920q23 0 40 -17q17 -19 17 -40q0 -23 -16 -41q-16 -16 -41 -16t-40 16q-17 17 -17 41q0 21 17 40q17 17 40 17zM557 920q23 0 40 -17q17 -19 17 -40q0 -24 -17 -41 q-15 -16 -40 -16t-41 16q-16 18 -16 41q0 21 17 40q17 17 40 17z" />
<glyph unicode="&#xd8;" d="M435 605q-22 42 -56 64q-33 21 -77 21q-88 0 -132.5 -82t-44.5 -244q0 -55 6 -105q5 -48 17 -87zM167 125q24 -44 57 -65q33 -22 78 -22q86 0 132 82q44 82 44 244q0 54 -5 105q-7 49 -19 88zM498 623q31 -52 47 -117q15 -64 15 -142q0 -171 -71 -273q-72 -105 -187 -105 q-50 0 -93 21q-41 20 -78 63l-65 -98l-28 34l67 101q-31 51 -46 115q-16 63 -16 142q0 169 72 273q72 105 187 105q50 0 93 -21q42 -19 77 -61l63 97l29 -35z" />
<glyph unicode="&#xd9;" d="M72 677h-63v52h225v-52h-63v-377q0 -137 33 -193.5t116 -56.5q86 0 118 59.5t32 190.5v377h-63v52h186v-52h-63v-387q0 -161 -51 -232.5t-177 -71.5t-178 71.5t-52 232.5v387zM352 927l88 -129h-56l-128 129h96z" />
<glyph unicode="&#xda;" d="M72 677h-63v52h225v-52h-63v-377q0 -137 33 -193.5t116 -56.5q86 0 118 59.5t32 190.5v377h-63v52h186v-52h-63v-387q0 -161 -51 -232.5t-177 -71.5t-178 71.5t-52 232.5v387zM344 927h96l-128 -129h-56z" />
<glyph unicode="&#xdb;" d="M72 677h-63v52h225v-52h-63v-377q0 -137 33 -193.5t116 -56.5q86 0 118 59.5t32 190.5v377h-63v52h186v-52h-63v-387q0 -161 -51 -232.5t-177 -71.5t-178 71.5t-52 232.5v387zM305 927h86l113 -129h-57l-99 79l-99 -79h-57z" />
<glyph unicode="&#xdc;" d="M72 677h-63v52h225v-52h-63v-377q0 -137 33 -193.5t116 -56.5q86 0 118 59.5t32 190.5v377h-63v52h186v-52h-63v-387q0 -161 -51 -232.5t-177 -71.5t-178 71.5t-52 232.5v387zM253 920q23 0 40 -17q17 -19 17 -40q0 -23 -16 -41q-16 -16 -41 -16t-40 16q-17 17 -17 41 q0 21 17 40q17 17 40 17zM443 920q23 0 40 -17q17 -19 17 -40q0 -24 -17 -41q-15 -16 -40 -16t-41 16q-16 18 -16 41q0 21 17 40q17 17 40 17z" />
<glyph unicode="&#xdd;" d="M189 0v52h63v262l-195 363h-38v52h211v-52h-55l152 -295l156 295h-52v52h152v-52h-39l-193 -354v-271h63v-52h-225zM378 927h96l-128 -129h-56z" />
<glyph unicode="&#xde;" d="M213 212h115q64 0 98 39q34 40 34 114t-34 114q-34 39 -98 39h-115v-306zM42 0v52h83v625h-83v52h271v-52h-100v-107h136q97 0 154 -56q57 -55 57 -149q0 -95 -57 -150q-58 -56 -154 -56h-136v-107h100v-52h-271z" />
<glyph unicode="&#xdf;" d="M420 591q-4 58 -34 89q-30 32 -83 32q-57 0 -84 -32t-27 -99v-581h-159v52h78v527q0 86 50 133q50 48 142 48q93 0 143 -51q49 -51 54 -154h-10q-62 0 -99 -26t-37 -72q0 -27 11 -44q13 -20 44 -42l39 -27q69 -48 95 -90q26 -41 26 -97q0 -75 -51 -123t-132 -48 q-37 0 -75 9q-33 8 -71 26v114h48q1 -49 26 -75t69 -26q50 0 77 30q28 28 28 80q0 42 -17 70q-17 27 -70 64l-37 26q-46 31 -66 63q-19 31 -19 72q0 59 37 100q39 40 104 52z" />
<glyph unicode="&#xe0;" d="M412 163v110h-116q-66 0 -98 -29q-34 -28 -34 -88q0 -54 34 -86q33 -32 90 -32q56 0 90 35q34 36 34 90zM502 324v-272h56v-52h-146v56q-30 -37 -68 -53q-41 -17 -92 -17q-88 0 -136 46q-52 45 -52 124q0 80 58 125q60 44 164 44h126v36q0 59 -36 91q-36 33 -100 33 q-55 0 -86 -25q-32 -25 -40 -72h-46v105q47 21 92 30q41 10 86 10q107 0 164 -53q56 -54 56 -156zM316 799l126 -184h-56l-166 184h96z" />
<glyph unicode="&#xe1;" d="M346 800h96l-166 -184h-56zM412 163v110h-116q-66 0 -98 -29q-34 -28 -34 -88q0 -54 34 -86q33 -32 90 -32q56 0 90 35q34 36 34 90zM502 324v-272h56v-52h-146v56q-30 -37 -68 -53q-41 -17 -92 -17q-88 0 -136 46q-52 45 -52 124q0 80 58 125q60 44 164 44h126v36 q0 59 -36 91q-36 33 -100 33q-55 0 -86 -25q-32 -25 -40 -72h-46v105q47 21 92 30q41 10 86 10q107 0 164 -53q56 -54 56 -156z" />
<glyph unicode="&#xe2;" d="M290 800h82l115 -184h-57l-99 127l-99 -127h-57zM412 163v110h-116q-66 0 -98 -29q-34 -28 -34 -88q0 -54 34 -86q33 -32 90 -32q56 0 90 35q34 36 34 90zM502 324v-272h56v-52h-146v56q-30 -37 -68 -53q-41 -17 -92 -17q-88 0 -136 46q-52 45 -52 124q0 80 58 125 q60 44 164 44h126v36q0 59 -36 91q-36 33 -100 33q-55 0 -86 -25q-32 -25 -40 -72h-46v105q47 21 92 30q41 10 86 10q107 0 164 -53q56 -54 56 -156z" />
<glyph unicode="&#xe3;" d="M329 669l-28 27q-12 12 -21 15q-7 4 -17 4q-19 0 -32 -19q-13 -20 -14 -57h-47q2 67 26 102q24 36 69 36q20 0 34 -7q18 -8 34 -23l28 -27q9 -9 19 -15q8 -4 19 -4q21 0 33 20q12 22 13 56h47q-2 -67 -26 -102q-24 -36 -69 -36q-20 0 -34 7q-18 8 -34 23zM412 163v110 h-116q-66 0 -98 -29q-34 -28 -34 -88q0 -54 34 -86q33 -32 90 -32q56 0 90 35q34 36 34 90zM502 324v-272h56v-52h-146v56q-30 -37 -68 -53q-41 -17 -92 -17q-88 0 -136 46q-52 45 -52 124q0 80 58 125q60 44 164 44h126v36q0 59 -36 91q-36 33 -100 33q-55 0 -86 -25 q-32 -25 -40 -72h-46v105q47 21 92 30q41 10 86 10q107 0 164 -53q56 -54 56 -156z" />
<glyph unicode="&#xe4;" d="M236 766q23 0 40 -17t17 -40q0 -25 -16 -41t-41 -16t-41 16q-16 18 -16 41t17 40t40 17zM426 766q23 0 40 -17t17 -40t-16 -41q-16 -16 -41 -16t-41 16t-16 41q0 23 17 40t40 17zM412 163v110h-116q-66 0 -98 -29q-34 -28 -34 -88q0 -54 34 -86q33 -32 90 -32q56 0 90 35 q34 36 34 90zM502 324v-272h56v-52h-146v56q-30 -37 -68 -53q-41 -17 -92 -17q-88 0 -136 46q-52 45 -52 124q0 80 58 125q60 44 164 44h126v36q0 59 -36 91q-36 33 -100 33q-55 0 -86 -25q-32 -25 -40 -72h-46v105q47 21 92 30q41 10 86 10q107 0 164 -53q56 -54 56 -156z " />
<glyph unicode="&#xe5;" d="M412 163v110h-116q-66 0 -98 -29q-34 -28 -34 -88q0 -54 34 -86q33 -32 90 -32q56 0 90 35q34 36 34 90zM502 324v-272h56v-52h-146v56q-30 -37 -68 -53q-41 -17 -92 -17q-88 0 -136 46q-52 45 -52 124q0 80 58 125q60 44 164 44h126v36q0 59 -36 91q-36 33 -100 33 q-55 0 -86 -25q-32 -25 -40 -72h-46v105q47 21 92 30q41 10 86 10q107 0 164 -53q56 -54 56 -156zM465 744q0 -56 -39 -95t-95 -39t-95 39t-39 95t39 95t95 39t95 -39t39 -95zM405 744q0 31 -21 52q-22 22 -53 22q-32 0 -53 -21q-21 -23 -21 -53q0 -32 21 -53t53 -21 q31 0 53 21q21 23 21 53z" />
<glyph unicode="&#xe6;" d="M255 163v110h-74q-43 0 -64 -29q-21 -28 -21 -88q0 -54 21 -86q22 -32 58 -32t58 35q22 36 22 90zM289 73q-26 -43 -58 -66q-31 -21 -70 -21q-62 0 -96 44q-33 45 -33 126q0 80 37 125q38 44 105 44h81v36q0 58 -22 91q-24 33 -63 33q-36 0 -57 -24q-21 -25 -26 -73h-29 v105q30 21 58 30q27 10 55 10q45 0 74.5 -21t47.5 -65q23 43 53 64q29 22 66 22q76 0 116 -73q40 -71 42 -210h-248v-4q0 -105 25 -158q25 -54 75 -54q37 0 62 31q24 32 34 92h46q-13 -85 -51 -128q-37 -43 -97 -43q-39 0 -70 22q-31 21 -57 65zM502 302q-2 90 -24 137 q-24 46 -66 46q-39 0 -62 -47q-23 -44 -28 -136h180z" />
<glyph unicode="&#xe7;" d="M408 0q34 -34 47 -59q15 -27 15 -51q0 -40 -31 -61q-29 -22 -85 -22q-21 0 -42 3q-22 3 -44 9v64q15 -7 39 -13q26 -4 37 -4q26 0 44 13q16 14 16 35q0 13 -11 35q-7 16 -32 51h47zM533 156q-19 -84 -73 -127q-53 -43 -140 -43q-113 0 -182 75t-69 199t69 199 q69 74 182 74q46 0 98 -11q47 -12 98 -35v-133h-52q-10 68 -45 100q-36 31 -98 31q-73 0 -110 -57q-37 -55 -37 -168t37 -169q36 -57 110 -57q57 0 93 30q34 31 47 92h72z" />
<glyph unicode="&#xe8;" d="M547 250h-387v-4q0 -106 39 -158q41 -54 117 -54q58 0 97 31q38 32 53 92h72q-21 -85 -79 -128t-152 -43q-114 0 -183 75t-69 199t68 198q67 75 178 75q118 0 181 -72q62 -72 65 -211zM441 302q-3 90 -38 137q-37 46 -102 46q-62 0 -98 -47q-35 -44 -43 -136h281z M336 799l128 -184h-58l-166 184h96z" />
<glyph unicode="&#xe9;" d="M547 250h-387v-4q0 -106 39 -158q41 -54 117 -54q58 0 97 31q38 32 53 92h72q-21 -85 -79 -128t-152 -43q-114 0 -183 75t-69 199t68 198q67 75 178 75q118 0 181 -72q62 -72 65 -211zM441 302q-3 90 -38 137q-37 46 -102 46q-62 0 -98 -47q-35 -44 -43 -136h281z M366 800h98l-166 -184h-58z" />
<glyph unicode="&#xea;" d="M311 800h82l115 -184h-57l-99 127l-99 -127h-57zM547 250h-387v-4q0 -106 39 -158q41 -54 117 -54q58 0 97 31q38 32 53 92h72q-21 -85 -79 -128t-152 -43q-114 0 -183 75t-69 199t68 198q67 75 178 75q118 0 181 -72q62 -72 65 -211zM441 302q-3 90 -38 137 q-37 46 -102 46q-62 0 -98 -47q-35 -44 -43 -136h281z" />
<glyph unicode="&#xeb;" d="M257 766q23 0 40 -17t17 -40q0 -25 -16 -41t-41 -16t-41 16q-16 18 -16 41t17 40t40 17zM447 766q23 0 40 -17t17 -40t-16 -41q-16 -16 -41 -16t-41 16t-16 41q0 23 17 40t40 17zM547 250h-387v-4q0 -106 39 -158q41 -54 117 -54q58 0 97 31q38 32 53 92h72 q-21 -85 -79 -128t-152 -43q-114 0 -183 75t-69 199t68 198q67 75 178 75q118 0 181 -72q62 -72 65 -211zM441 302q-3 90 -38 137q-37 46 -102 46q-62 0 -98 -47q-35 -44 -43 -136h281z" />
<glyph unicode="&#xec;" d="M468 52h85v-52h-261v52h86v415h-86v52h176v-467zM452 799l127 -184h-57l-166 184h96z" />
<glyph unicode="&#xed;" d="M468 52h85v-52h-261v52h86v415h-86v52h176v-467zM482 800h97l-166 -184h-57z" />
<glyph unicode="&#xee;" d="M488 52h84v-52h-260v52h86v415h-86v52h176v-467zM446 800h82l114 -184h-56l-100 127l-98 -127h-58z" />
<glyph unicode="&#xef;" d="M352 766q23 0 40 -17t17 -40q0 -25 -16 -41t-41 -16t-41 16q-16 18 -16 41t17 40t40 17zM542 766q23 0 40 -17t17 -40t-16 -41q-16 -16 -41 -16t-41 16t-16 41q0 23 17 40t40 17zM448 52h85v-52h-261v52h86v415h-86v52h176v-467z" />
<glyph unicode="&#xf0;" d="M401 453l-42 7q-26 2 -39 2q-84 0 -125 -52q-40 -52 -40 -162q0 -102 38 -158q39 -56 108 -56q70 0 108 56t38 160q0 55 -12 106q-10 48 -34 97zM371 638q90 -81 135 -177q46 -93 46 -201q0 -124 -69 -199t-182 -75q-112 0 -182 74q-69 74 -69 193q0 115 69 186t180 71 q11 0 35 -2q30 -2 44 -5q-11 26 -29 52q-20 28 -42 53l-157 -73l-18 38l143 66q-29 28 -68 48q-43 22 -85 31l9 42q57 -13 109 -36q49 -22 96 -56l157 73l18 -38z" />
<glyph unicode="&#xf1;" d="M392 669l-28 27q-12 12 -21 15q-7 4 -17 4q-19 0 -32 -19q-13 -20 -14 -57h-47q2 67 26 102q24 36 69 36q20 0 34 -7q18 -8 34 -23l28 -27q9 -9 19 -15q8 -4 19 -4q21 0 33 20q12 22 13 56h47q-2 -67 -26 -102q-24 -36 -69 -36q-20 0 -34 7q-18 8 -34 23zM45 0v52h56v415 h-61v52h151v-92q26 53 65 79q39 27 92 27q87 0 127 -49t40 -154v-278h55v-52h-198v52h53v250q0 96 -24 130q-23 36 -82 36q-64 0 -95 -46q-33 -45 -33 -133v-237h53v-52h-199z" />
<glyph unicode="&#xf2;" d="M301 34q68 0 104 57q35 59 35 169q0 109 -35 168q-36 57 -104 57q-69 0 -104 -57q-35 -56 -35 -168q0 -113 35 -169q36 -57 104 -57zM301 -14q-107 0 -172.5 75t-65.5 199t64 198q66 75 174 75q107 0 173 -75q65 -73 65 -198q0 -124 -65.5 -199t-172.5 -75zM336 799 l127 -184h-57l-166 184h96z" />
<glyph unicode="&#xf3;" d="M301 34q68 0 104 57q35 59 35 169q0 109 -35 168q-36 57 -104 57q-69 0 -104 -57q-35 -56 -35 -168q0 -113 35 -169q36 -57 104 -57zM301 -14q-107 0 -172.5 75t-65.5 199t64 198q66 75 174 75q107 0 173 -75q65 -73 65 -198q0 -124 -65.5 -199t-172.5 -75zM366 800h97 l-166 -184h-57z" />
<glyph unicode="&#xf4;" d="M311 800h82l115 -184h-57l-99 127l-99 -127h-57zM301 34q68 0 104 57q35 59 35 169q0 109 -35 168q-36 57 -104 57q-69 0 -104 -57q-35 -56 -35 -168q0 -113 35 -169q36 -57 104 -57zM301 -14q-107 0 -172.5 75t-65.5 199t64 198q66 75 174 75q107 0 173 -75 q65 -73 65 -198q0 -124 -65.5 -199t-172.5 -75z" />
<glyph unicode="&#xf5;" d="M350 669l-28 27q-12 12 -21 15q-7 4 -17 4q-19 0 -32 -19q-13 -20 -14 -57h-47q2 67 26 102q24 36 69 36q20 0 34 -7q18 -8 34 -23l28 -27q9 -9 19 -15q8 -4 19 -4q21 0 33 20q12 22 13 56h47q-2 -67 -26 -102q-24 -36 -69 -36q-20 0 -34 7q-18 8 -34 23zM301 34 q68 0 104 57q35 59 35 169q0 109 -35 168q-36 57 -104 57q-69 0 -104 -57q-35 -56 -35 -168q0 -113 35 -169q36 -57 104 -57zM301 -14q-107 0 -172.5 75t-65.5 199t64 198q66 75 174 75q107 0 173 -75q65 -73 65 -198q0 -124 -65.5 -199t-172.5 -75z" />
<glyph unicode="&#xf6;" d="M257 766q23 0 40 -17t17 -40q0 -25 -16 -41t-41 -16t-41 16q-16 18 -16 41t17 40t40 17zM447 766q23 0 40 -17t17 -40t-16 -41q-16 -16 -41 -16t-41 16t-16 41q0 23 17 40t40 17zM301 34q68 0 104 57q35 59 35 169q0 109 -35 168q-36 57 -104 57q-69 0 -104 -57 q-35 -56 -35 -168q0 -113 35 -169q36 -57 104 -57zM301 -14q-107 0 -172.5 75t-65.5 199t64 198q66 75 174 75q107 0 173 -75q65 -73 65 -198q0 -124 -65.5 -199t-172.5 -75z" />
<glyph unicode="&#xf8;" d="M412 429q-18 28 -46 42t-63 14q-71 0 -109 -57q-37 -56 -37 -168q0 -36 3 -64q6 -36 11 -53zM193 93q20 -31 47 -44q27 -15 63 -15q72 0 109 58q37 59 37 168q0 41 -4 66q-3 27 -11 55zM492 450q32 -38 46 -84q16 -48 16 -106q0 -124 -69 -199t-182 -75q-47 0 -85 13 q-36 11 -72 39l-70 -84l-37 31l73 87q-30 38 -45 84q-15 48 -15 104q0 124 68 198q69 75 183 75q46 0 85 -12q39 -14 70 -37l68 81l37 -31z" />
<glyph unicode="&#xf9;" d="M363 519h143v-467h60v-52h-150v92q-23 -51 -64 -79q-40 -27 -92 -27q-87 0 -127 49q-41 50 -41 154v278h-56v52h146v-302q0 -95 23 -130t83 -35q64 0 95 46q33 45 33 133v236h-53v52zM350 799l128 -184h-58l-166 184h96z" />
<glyph unicode="&#xfa;" d="M363 519h143v-467h60v-52h-150v92q-23 -51 -64 -79q-40 -27 -92 -27q-87 0 -127 49q-41 50 -41 154v278h-56v52h146v-302q0 -95 23 -130t83 -35q64 0 95 46q33 45 33 133v236h-53v52zM380 800h98l-166 -184h-58z" />
<glyph unicode="&#xfb;" d="M325 800h82l115 -184h-57l-99 127l-99 -127h-57zM363 519h143v-467h60v-52h-150v92q-23 -51 -64 -79q-40 -27 -92 -27q-87 0 -127 49q-41 50 -41 154v278h-56v52h146v-302q0 -95 23 -130t83 -35q64 0 95 46q33 45 33 133v236h-53v52z" />
<glyph unicode="&#xfc;" d="M271 766q23 0 40 -17t17 -40q0 -25 -16 -41t-41 -16t-41 16q-16 18 -16 41t17 40t40 17zM461 766q23 0 40 -17t17 -40t-16 -41q-16 -16 -41 -16t-41 16t-16 41q0 23 17 40t40 17zM363 519h143v-467h60v-52h-150v92q-23 -51 -64 -79q-40 -27 -92 -27q-87 0 -127 49 q-41 50 -41 154v278h-56v52h146v-302q0 -95 23 -130t83 -35q64 0 95 46q33 45 33 133v236h-53v52z" />
<glyph unicode="&#xfd;" d="M238 -95l34 86l-194 476h-50v52h220v-52h-74l146 -357l146 357h-68v52h176v-52h-48l-238 -584q-24 -60 -54 -83q-30 -22 -84 -22q-26 0 -48 4q-20 3 -48 11v99h46q2 -32 16 -48q14 -14 44 -14q26 0 42 15q18 16 36 60zM370 800h97l-166 -184h-57z" />
<glyph unicode="&#xfe;" d="M203 285v-51q0 -93 34 -143q33 -49 97 -49q66 0 98 55q34 55 34 163t-34 162q-32 55 -98 55q-64 0 -97 -49q-34 -50 -34 -143zM118 708h-81v52h166v-322q25 50 63 72q39 23 95 23q90 0 146 -75q58 -76 58 -198q0 -124 -58 -198q-56 -76 -146 -76q-56 0 -95 23 q-36 21 -63 72v-237h80v-52h-246v52h81v864z" />
<glyph unicode="&#xff;" d="M261 766q23 0 40 -17t17 -40q0 -25 -16 -41t-41 -16t-41 16q-16 18 -16 41t17 40t40 17zM451 766q23 0 40 -17t17 -40t-16 -41q-16 -16 -41 -16t-41 16t-16 41q0 23 17 40t40 17zM238 -95l34 86l-194 476h-50v52h220v-52h-74l146 -357l146 357h-68v52h176v-52h-48 l-238 -584q-24 -60 -54 -83q-30 -22 -84 -22q-26 0 -48 4q-20 3 -48 11v99h46q2 -32 16 -48q14 -14 44 -14q26 0 42 15q18 16 36 60z" />
<glyph unicode="&#x152;" d="M300 52v625h-48q-74 0 -113 -80t-39 -231q0 -153 39 -233q39 -81 113 -81h48zM561 0h-312q-98 0 -153 97q-55 96 -55 269q0 171 54.5 267t153.5 96h308v-162h-32v102h-174v-244h125v91h31v-242h-31v91h-125v-305h179v102h31v-162z" />
<glyph unicode="&#x153;" d="M185 34q43 0 65 57q22 59 22 169q0 109 -22 168q-22 57 -65 57q-44 0 -65 -57q-23 -56 -23 -168q0 -113 23 -169q22 -57 65 -57zM568 250h-232v-4q0 -106 23 -158q24 -54 70 -54q35 0 58 31q23 32 32 92h43q-12 -85 -47 -128t-91 -43q-38 0 -69 24q-31 25 -51 71 q-20 -46 -51 -71q-30 -24 -68 -24q-68 0 -109.5 75t-41.5 199t41 198q42 75 110 75q38 0 69 -24q29 -24 50 -71q22 47 51 71t65 24q71 0 109 -72q37 -72 39 -211zM504 302q-2 90 -23 137q-22 46 -61 46q-37 0 -59 -47q-21 -44 -25 -136h168z" />
<glyph unicode="&#x178;" d="M189 0v52h63v262l-195 363h-38v52h211v-52h-55l152 -295l156 295h-52v52h152v-52h-39l-193 -354v-271h63v-52h-225zM287 920q23 0 40 -17q17 -19 17 -40q0 -23 -16 -41q-16 -16 -41 -16t-40 16q-17 17 -17 41q0 21 17 40q17 17 40 17zM477 920q23 0 40 -17q17 -19 17 -40 q0 -24 -17 -41q-15 -16 -40 -16t-41 16q-16 18 -16 41q0 21 17 40q17 17 40 17z" />
<glyph unicode="&#x2c6;" d="M260 800h82l115 -184h-57l-99 127l-99 -127h-57z" />
<glyph unicode="&#x2dc;" d="M299 669l-28 27q-12 12 -21 15q-7 4 -17 4q-19 0 -32 -19q-13 -20 -14 -57h-47q2 67 26 102q24 36 69 36q20 0 34 -7q18 -8 34 -23l28 -27q9 -9 19 -15q8 -4 19 -4q21 0 33 20q12 22 13 56h47q-2 -67 -26 -102q-24 -36 -69 -36q-20 0 -34 7q-18 8 -34 23z" />
<glyph unicode="&#x2000;" horiz-adv-x="464" />
<glyph unicode="&#x2001;" horiz-adv-x="928" />
<glyph unicode="&#x2002;" horiz-adv-x="464" />
<glyph unicode="&#x2003;" horiz-adv-x="928" />
<glyph unicode="&#x2004;" horiz-adv-x="309" />
<glyph unicode="&#x2005;" horiz-adv-x="232" />
<glyph unicode="&#x2006;" horiz-adv-x="154" />
<glyph unicode="&#x2007;" horiz-adv-x="154" />
<glyph unicode="&#x2008;" horiz-adv-x="116" />
<glyph unicode="&#x2009;" horiz-adv-x="185" />
<glyph unicode="&#x200a;" horiz-adv-x="51" />
<glyph unicode="&#x2010;" d="M174 314h254v-80h-254v80z" />
<glyph unicode="&#x2011;" d="M174 314h254v-80h-254v80z" />
<glyph unicode="&#x2013;" d="M51 298h500v-65h-500v65z" />
<glyph unicode="&#x2014;" d="M1 298h600v-65h-600v65z" />
<glyph unicode="&#x2018;" d="M384 703q-38 -32 -54 -73q-17 -38 -17 -104v-31h-95q0 84 31 144q30 59 97 103z" />
<glyph unicode="&#x2019;" d="M218 521q39 33 54 73q18 43 18 105v30h94q-1 -85 -30 -144q-31 -57 -98 -103z" />
<glyph unicode="&#x201a;" d="M208 -97q45 31 68 79q22 47 22 111v18h96q-5 -85 -40 -143q-37 -62 -106 -104z" />
<glyph unicode="&#x201c;" d="M480 703q-37 -32 -54 -73q-16 -42 -16 -104v-31h-96q2 87 32 144q30 59 96 103zM288 703q-38 -32 -54 -73q-18 -38 -18 -104v-31h-94q0 84 30 144q31 59 98 103z" />
<glyph unicode="&#x201d;" d="M121 521q39 33 55 73q17 43 17 105v30h95q-2 -85 -31 -144q-31 -57 -98 -103zM315 521q38 32 54 73q17 42 17 104v31h95q-2 -87 -31 -144q-31 -58 -97 -103z" />
<glyph unicode="&#x201e;" d="M112 -97q44 31 68 79q21 47 21 111v18h96q-5 -85 -39 -143q-37 -62 -107 -104zM305 -97q44 31 68 79q21 47 21 111v18h96q-3 -85 -39 -143q-37 -62 -107 -104z" />
<glyph unicode="&#x2022;" d="M156 372q0 62 42 102q42 42 104 42q60 0 102 -42q42 -40 42 -102q0 -61 -42 -103q-42 -43 -103 -43t-103 42t-42 104z" />
<glyph unicode="&#x2026;" d="M462 51q0 27 11 46t28 19q16 0 27.5 -19t11.5 -46t-11.5 -46t-27.5 -19q-17 0 -28 19q-11 18 -11 46zM262 51q0 27 11 46t28 19q16 0 27.5 -19t11.5 -46t-11.5 -46t-27.5 -19q-17 0 -28 19q-11 18 -11 46zM62 51q0 27 12 46q10 19 27 19q16 0 27.5 -19t11.5 -46 t-11.5 -46t-27.5 -19q-17 0 -27 19q-12 18 -12 46z" />
<glyph unicode="&#x202f;" horiz-adv-x="185" />
<glyph unicode="&#x2039;" d="M416 517v-56l-146 -168l146 -168v-56l-230 204v40z" />
<glyph unicode="&#x203a;" d="M186 517l230 -204v-40l-230 -204v56l146 168l-146 168v56z" />
<glyph unicode="&#x205f;" horiz-adv-x="232" />
<glyph unicode="&#x20ac;" d="M564 193q-20 -99 -73 -154q-54 -53 -132 -53q-87 0 -150 74q-62 76 -83 203h-88l21 51h62q0 2 -0.5 8.5t-0.5 10.5q-1 16 -1 31q0 20 1 28q0 16 1 23h-83l21 51h67q21 128 83 202t150 74q44 0 91 -15q49 -16 102 -49v-167h-48q-9 88 -45 135q-35 48 -91 48 q-62 0 -100 -58q-38 -59 -47 -170h231l-22 -51h-212q0 -2 -0.5 -8t-0.5 -10q-1 -17 -1 -33q0 -10 1 -21v-29h172l-22 -51h-146q9 -111 48 -170q38 -59 99 -59q53 0 89 41q35 42 46 118h61z" />
<glyph unicode="&#x2122;" d="M345 729l51 -132l53 132h64v-32h-25v-218h25v-32h-83v32h25v208l-61 -152h-13l-58 152v-208h25v-32h-71v32h25v218h-25v32h68zM89 729h163v-83h-20v51h-45v-218h25v-32h-84v32h25v218h-45v-51h-19v83z" />
</font>
</defs>
</svg>
